<svg width="21" height="21" viewBox="0 0 21 21" fill="none" xmlns="http://www.w3.org/2000/svg">
<path d="M9.625 1.875C10.0622 1.875 10.464 2.03135 10.7793 2.34668C11.0947 2.66209 11.251 3.06426 11.25 3.50195C11.2489 3.93757 11.0929 4.33748 10.7803 4.65234C10.4653 4.96951 10.0628 5.12524 9.625 5.12402V5.125H5.125V15.875H9.625C10.0622 15.875 10.464 16.0314 10.7793 16.3467C11.0947 16.6621 11.251 17.0643 11.25 17.502C11.2489 17.9376 11.0929 18.3375 10.7803 18.6523C10.4653 18.9695 10.0628 19.1252 9.625 19.124V19.125H4.375C3.69347 19.125 3.09145 18.8737 2.60938 18.3916C2.12734 17.9096 1.87584 17.3075 1.875 16.626V4.375C1.875 3.69303 2.12657 3.09038 2.60938 2.6084C3.09143 2.12718 3.69318 1.87584 4.37402 1.875H9.625ZM13.9775 5.75781C14.4324 5.74402 14.8447 5.9071 15.166 6.22949H15.165L18.293 9.35742C18.599 9.66357 18.7754 10.0548 18.7754 10.5C18.7754 10.9452 18.599 11.3364 18.293 11.6426L15.165 14.7705C14.8489 15.0867 14.4427 15.2554 13.9893 15.2422C13.551 15.2294 13.1633 15.0549 12.8574 14.749L12.8457 14.7373L12.835 14.7256C12.5404 14.4042 12.3946 14.0054 12.4082 13.5723C12.4214 13.1549 12.5751 12.7701 12.877 12.4658L13.2178 12.125H8.75C8.31278 12.125 7.9108 11.9685 7.5957 11.6523C7.28219 11.3377 7.12607 10.9376 7.125 10.502C7.12397 10.0634 7.28134 9.66093 7.59766 9.3457C7.91247 9.03201 8.31296 8.875 8.75 8.875H13.2178L12.8574 8.51465C12.5519 8.20915 12.3965 7.81945 12.3965 7.39355C12.3965 6.96906 12.5502 6.58502 12.835 6.27441C13.1387 5.94313 13.5377 5.77127 13.9775 5.75781Z" fill="#FACC15" stroke="#111827" stroke-width="1.5"/>
</svg>
